<mxfile host="app.diagrams.net" agent="Mozilla/5.0 (Windows NT 10.0; Win64; x64) AppleWebKit/537.36 (KHTML, like Gecko) Chrome/130.0.0.0 Safari/537.36" version="24.8.3">
  <diagram name="Sayfa -1" id="dk-Wne1wUJHQ0JEfPRDA">
    <mxGraphModel dx="1674" dy="738" grid="1" gridSize="10" guides="1" tooltips="1" connect="1" arrows="1" fold="1" page="1" pageScale="1" pageWidth="827" pageHeight="1169" math="0" shadow="0">
      <root>
        <mxCell id="0" />
        <mxCell id="1" parent="0" />
        <mxCell id="Cl1ausW0XRphiPgj3pix-1" value="" style="shape=image;html=1;verticalAlign=top;verticalLabelPosition=bottom;labelBackgroundColor=#ffffff;imageAspect=0;aspect=fixed;image=https://cdn2.iconfinder.com/data/icons/business-and-education-1/512/133_Solar_Panel_Energy_technology_smart_city_technology_smart-128.png;shadow=1;" vertex="1" parent="1">
          <mxGeometry x="80" y="110" width="128" height="128" as="geometry" />
        </mxCell>
        <mxCell id="Cl1ausW0XRphiPgj3pix-2" value="" style="shape=image;html=1;verticalAlign=top;verticalLabelPosition=bottom;labelBackgroundColor=#ffffff;imageAspect=0;aspect=fixed;image=https://cdn4.iconfinder.com/data/icons/ionicons/512/icon-battery-charging-128.png;shadow=1;" vertex="1" parent="1">
          <mxGeometry x="640" y="100" width="128" height="128" as="geometry" />
        </mxCell>
        <mxCell id="Cl1ausW0XRphiPgj3pix-5" value="" style="edgeStyle=none;orthogonalLoop=1;jettySize=auto;html=1;rounded=0;" edge="1" parent="1">
          <mxGeometry width="80" relative="1" as="geometry">
            <mxPoint x="200" y="160" as="sourcePoint" />
            <mxPoint x="310" y="160" as="targetPoint" />
            <Array as="points" />
          </mxGeometry>
        </mxCell>
        <mxCell id="Cl1ausW0XRphiPgj3pix-7" value="" style="edgeStyle=none;orthogonalLoop=1;jettySize=auto;html=1;rounded=0;" edge="1" parent="1">
          <mxGeometry width="80" relative="1" as="geometry">
            <mxPoint x="200" y="181" as="sourcePoint" />
            <mxPoint x="310" y="180" as="targetPoint" />
            <Array as="points">
              <mxPoint x="242" y="180" />
            </Array>
          </mxGeometry>
        </mxCell>
        <mxCell id="Cl1ausW0XRphiPgj3pix-9" value="Güneş Paneli" style="text;strokeColor=none;align=center;fillColor=none;html=1;verticalAlign=middle;whiteSpace=wrap;rounded=0;" vertex="1" parent="1">
          <mxGeometry x="100" y="70" width="60" height="30" as="geometry" />
        </mxCell>
        <mxCell id="Cl1ausW0XRphiPgj3pix-10" value="Güneş&amp;nbsp;&lt;div&gt;Şarj&lt;/div&gt;&lt;div&gt;Devresi&lt;/div&gt;" style="text;strokeColor=none;align=center;fillColor=none;html=1;verticalAlign=middle;whiteSpace=wrap;rounded=0;" vertex="1" parent="1">
          <mxGeometry x="350" y="80" width="60" height="30" as="geometry" />
        </mxCell>
        <mxCell id="Cl1ausW0XRphiPgj3pix-24" style="edgeStyle=orthogonalEdgeStyle;rounded=0;orthogonalLoop=1;jettySize=auto;html=1;" edge="1" parent="1" source="Cl1ausW0XRphiPgj3pix-11">
          <mxGeometry relative="1" as="geometry">
            <mxPoint x="384" y="330" as="targetPoint" />
          </mxGeometry>
        </mxCell>
        <mxCell id="Cl1ausW0XRphiPgj3pix-11" value="" style="shape=image;html=1;verticalAlign=top;verticalLabelPosition=bottom;labelBackgroundColor=#ffffff;imageAspect=0;aspect=fixed;image=https://cdn3.iconfinder.com/data/icons/energy-and-power-glyph-24-px/24/Automotive_battery_battery_charging_car_battery_truck_battery_vehicle_battery_1-128.png;shadow=1;" vertex="1" parent="1">
          <mxGeometry x="320" y="110" width="128" height="128" as="geometry" />
        </mxCell>
        <mxCell id="Cl1ausW0XRphiPgj3pix-12" value="" style="edgeStyle=none;orthogonalLoop=1;jettySize=auto;html=1;rounded=0;" edge="1" parent="1">
          <mxGeometry width="80" relative="1" as="geometry">
            <mxPoint x="615" y="160" as="sourcePoint" />
            <mxPoint x="485" y="160" as="targetPoint" />
            <Array as="points" />
          </mxGeometry>
        </mxCell>
        <mxCell id="Cl1ausW0XRphiPgj3pix-22" value="Pil&lt;div&gt;Lİ-on&lt;/div&gt;" style="text;strokeColor=none;align=center;fillColor=none;html=1;verticalAlign=middle;whiteSpace=wrap;rounded=0;" vertex="1" parent="1">
          <mxGeometry x="664" y="80" width="60" height="30" as="geometry" />
        </mxCell>
        <mxCell id="Cl1ausW0XRphiPgj3pix-23" value="" style="shape=image;html=1;verticalAlign=top;verticalLabelPosition=bottom;labelBackgroundColor=#ffffff;imageAspect=0;aspect=fixed;image=https://cdn1.iconfinder.com/data/icons/ionicons-sharp-vol-1/512/hardware-chip-sharp-128.png;shadow=1;" vertex="1" parent="1">
          <mxGeometry x="320" y="330" width="128" height="128" as="geometry" />
        </mxCell>
        <mxCell id="Cl1ausW0XRphiPgj3pix-30" value="+" style="text;strokeColor=none;align=center;fillColor=none;html=1;verticalAlign=middle;whiteSpace=wrap;rounded=0;" vertex="1" parent="1">
          <mxGeometry x="270" y="130" width="60" height="30" as="geometry" />
        </mxCell>
        <mxCell id="Cl1ausW0XRphiPgj3pix-31" value="-" style="text;strokeColor=none;align=center;fillColor=none;html=1;verticalAlign=middle;whiteSpace=wrap;rounded=0;" vertex="1" parent="1">
          <mxGeometry x="270" y="190" width="60" height="30" as="geometry" />
        </mxCell>
        <mxCell id="Cl1ausW0XRphiPgj3pix-32" value="+" style="text;strokeColor=none;align=center;fillColor=none;html=1;verticalAlign=middle;whiteSpace=wrap;rounded=0;" vertex="1" parent="1">
          <mxGeometry x="470" y="120" width="60" height="30" as="geometry" />
        </mxCell>
        <mxCell id="Cl1ausW0XRphiPgj3pix-33" value="-" style="text;strokeColor=none;align=center;fillColor=none;html=1;verticalAlign=middle;whiteSpace=wrap;rounded=0;" vertex="1" parent="1">
          <mxGeometry x="470" y="190" width="60" height="30" as="geometry" />
        </mxCell>
        <mxCell id="Cl1ausW0XRphiPgj3pix-35" value="" style="edgeStyle=none;orthogonalLoop=1;jettySize=auto;html=1;rounded=0;" edge="1" parent="1">
          <mxGeometry width="80" relative="1" as="geometry">
            <mxPoint x="614" y="189" as="sourcePoint" />
            <mxPoint x="484" y="189" as="targetPoint" />
            <Array as="points" />
          </mxGeometry>
        </mxCell>
        <mxCell id="Cl1ausW0XRphiPgj3pix-36" value="STM32" style="text;strokeColor=none;align=center;fillColor=none;html=1;verticalAlign=middle;whiteSpace=wrap;rounded=0;" vertex="1" parent="1">
          <mxGeometry x="280" y="310" width="60" height="30" as="geometry" />
        </mxCell>
        <mxCell id="Cl1ausW0XRphiPgj3pix-37" style="edgeStyle=orthogonalEdgeStyle;rounded=0;orthogonalLoop=1;jettySize=auto;html=1;" edge="1" parent="1">
          <mxGeometry relative="1" as="geometry">
            <mxPoint x="409" y="238" as="sourcePoint" />
            <mxPoint x="409" y="330" as="targetPoint" />
            <Array as="points">
              <mxPoint x="409" y="290" />
              <mxPoint x="409" y="290" />
            </Array>
          </mxGeometry>
        </mxCell>
        <mxCell id="Cl1ausW0XRphiPgj3pix-40" value="+" style="text;html=1;align=center;verticalAlign=middle;resizable=0;points=[];autosize=1;strokeColor=none;fillColor=none;" vertex="1" parent="1">
          <mxGeometry x="345" y="298" width="30" height="30" as="geometry" />
        </mxCell>
        <mxCell id="Cl1ausW0XRphiPgj3pix-41" value="-" style="text;html=1;align=center;verticalAlign=middle;resizable=0;points=[];autosize=1;strokeColor=none;fillColor=none;" vertex="1" parent="1">
          <mxGeometry x="430" y="298" width="30" height="30" as="geometry" />
        </mxCell>
        <mxCell id="Cl1ausW0XRphiPgj3pix-45" value="" style="image;points=[];aspect=fixed;html=1;align=center;shadow=1;dashed=0;image=img/lib/allied_telesis/media_converters/Industrial_Media_Converter.svg;strokeColor=#000000;direction=east;fillColor=#FF00FF;" vertex="1" parent="1">
          <mxGeometry x="80" y="345.5" width="51.05" height="97" as="geometry" />
        </mxCell>
        <mxCell id="Cl1ausW0XRphiPgj3pix-57" value="Rx1" style="text;html=1;align=center;verticalAlign=middle;resizable=0;points=[];autosize=1;strokeColor=none;fillColor=none;fontFamily=Helvetica;fontSize=12;fontColor=default;labelBackgroundColor=#ffffff;" vertex="1" parent="1">
          <mxGeometry x="250" y="338" width="40" height="30" as="geometry" />
        </mxCell>
        <mxCell id="Cl1ausW0XRphiPgj3pix-58" value="Tx1" style="text;html=1;align=center;verticalAlign=middle;resizable=0;points=[];autosize=1;strokeColor=none;fillColor=none;fontFamily=Helvetica;fontSize=12;fontColor=default;labelBackgroundColor=#ffffff;" vertex="1" parent="1">
          <mxGeometry x="250" y="418" width="40" height="30" as="geometry" />
        </mxCell>
        <mxCell id="Cl1ausW0XRphiPgj3pix-59" value="Rx" style="text;html=1;align=center;verticalAlign=middle;resizable=0;points=[];autosize=1;strokeColor=none;fillColor=none;fontFamily=Helvetica;fontSize=12;fontColor=default;labelBackgroundColor=#ffffff;" vertex="1" parent="1">
          <mxGeometry x="150" y="338" width="40" height="30" as="geometry" />
        </mxCell>
        <mxCell id="Cl1ausW0XRphiPgj3pix-60" value="Tx" style="text;html=1;align=center;verticalAlign=middle;resizable=0;points=[];autosize=1;strokeColor=none;fillColor=none;fontFamily=Helvetica;fontSize=12;fontColor=default;labelBackgroundColor=#ffffff;" vertex="1" parent="1">
          <mxGeometry x="150" y="418" width="40" height="30" as="geometry" />
        </mxCell>
        <mxCell id="Cl1ausW0XRphiPgj3pix-61" value="Sensor" style="sketch=0;outlineConnect=0;fontColor=#232F3E;gradientColor=none;strokeColor=#232F3E;fillColor=default;dashed=0;verticalLabelPosition=bottom;verticalAlign=top;align=center;html=1;fontSize=12;fontStyle=0;aspect=fixed;shape=mxgraph.aws4.resourceIcon;resIcon=mxgraph.aws4.sensor;fontFamily=Helvetica;labelBackgroundColor=#ffffff;" vertex="1" parent="1">
          <mxGeometry x="650" y="340" width="90" height="90" as="geometry" />
        </mxCell>
        <mxCell id="Cl1ausW0XRphiPgj3pix-70" value="" style="html=1;verticalLabelPosition=bottom;verticalAlign=top;outlineConnect=0;shadow=0;dashed=0;shape=mxgraph.rack.hpe_aruba.gateways_controllers.aruba_9004_4_port_gbe_gateway_front;strokeColor=default;align=center;fontFamily=Helvetica;fontSize=12;fontColor=default;labelBackgroundColor=#ffffff;fillColor=default;" vertex="1" parent="1">
          <mxGeometry x="564" y="515" width="100" height="40" as="geometry" />
        </mxCell>
        <mxCell id="Cl1ausW0XRphiPgj3pix-74" value="Rx" style="text;html=1;align=center;verticalAlign=middle;resizable=0;points=[];autosize=1;strokeColor=none;fillColor=none;fontFamily=Helvetica;fontSize=12;fontColor=default;labelBackgroundColor=#ffffff;" vertex="1" parent="1">
          <mxGeometry x="550" y="478" width="40" height="30" as="geometry" />
        </mxCell>
        <mxCell id="Cl1ausW0XRphiPgj3pix-75" value="Tx" style="text;html=1;align=center;verticalAlign=middle;resizable=0;points=[];autosize=1;strokeColor=none;fillColor=none;fontFamily=Helvetica;fontSize=12;fontColor=default;labelBackgroundColor=#ffffff;" vertex="1" parent="1">
          <mxGeometry x="550" y="555" width="40" height="30" as="geometry" />
        </mxCell>
        <mxCell id="Cl1ausW0XRphiPgj3pix-76" value="Rx2" style="text;html=1;align=center;verticalAlign=middle;resizable=0;points=[];autosize=1;strokeColor=none;fillColor=none;fontFamily=Helvetica;fontSize=12;fontColor=default;labelBackgroundColor=#ffffff;" vertex="1" parent="1">
          <mxGeometry x="310" y="442.5" width="40" height="30" as="geometry" />
        </mxCell>
        <mxCell id="Cl1ausW0XRphiPgj3pix-77" value="Tx2" style="text;html=1;align=center;verticalAlign=middle;resizable=0;points=[];autosize=1;strokeColor=none;fillColor=none;fontFamily=Helvetica;fontSize=12;fontColor=default;labelBackgroundColor=#ffffff;" vertex="1" parent="1">
          <mxGeometry x="390" y="448" width="40" height="30" as="geometry" />
        </mxCell>
        <mxCell id="Cl1ausW0XRphiPgj3pix-78" value="LoRA" style="text;html=1;align=center;verticalAlign=middle;resizable=0;points=[];autosize=1;strokeColor=none;fillColor=none;fontFamily=Helvetica;fontSize=12;fontColor=default;labelBackgroundColor=#ffffff;" vertex="1" parent="1">
          <mxGeometry x="605" y="485" width="50" height="30" as="geometry" />
        </mxCell>
        <mxCell id="Cl1ausW0XRphiPgj3pix-81" value="" style="endArrow=none;html=1;rounded=0;fontFamily=Helvetica;fontSize=12;fontColor=default;labelBackgroundColor=#ffffff;" edge="1" parent="1">
          <mxGeometry width="50" height="50" relative="1" as="geometry">
            <mxPoint x="448" y="380" as="sourcePoint" />
            <mxPoint x="640" y="380" as="targetPoint" />
          </mxGeometry>
        </mxCell>
        <mxCell id="Cl1ausW0XRphiPgj3pix-82" value="" style="endArrow=none;html=1;rounded=0;fontFamily=Helvetica;fontSize=12;fontColor=default;labelBackgroundColor=#ffffff;entryX=0.016;entryY=0.43;entryDx=0;entryDy=0;entryPerimeter=0;exitX=0.999;exitY=0.397;exitDx=0;exitDy=0;exitPerimeter=0;" edge="1" parent="1" source="Cl1ausW0XRphiPgj3pix-45" target="Cl1ausW0XRphiPgj3pix-23">
          <mxGeometry width="50" height="50" relative="1" as="geometry">
            <mxPoint x="160" y="383.5" as="sourcePoint" />
            <mxPoint x="280" y="383.5" as="targetPoint" />
          </mxGeometry>
        </mxCell>
        <mxCell id="Cl1ausW0XRphiPgj3pix-83" value="" style="endArrow=none;html=1;rounded=0;fontFamily=Helvetica;fontSize=12;fontColor=default;labelBackgroundColor=#ffffff;entryX=-0.023;entryY=0.625;entryDx=0;entryDy=0;entryPerimeter=0;" edge="1" parent="1" target="Cl1ausW0XRphiPgj3pix-23">
          <mxGeometry width="50" height="50" relative="1" as="geometry">
            <mxPoint x="141.05" y="410" as="sourcePoint" />
            <mxPoint x="303" y="411" as="targetPoint" />
          </mxGeometry>
        </mxCell>
        <mxCell id="Cl1ausW0XRphiPgj3pix-84" value="" style="endArrow=none;html=1;rounded=0;fontFamily=Helvetica;fontSize=12;fontColor=default;labelBackgroundColor=#ffffff;" edge="1" parent="1">
          <mxGeometry width="50" height="50" relative="1" as="geometry">
            <mxPoint x="448" y="410" as="sourcePoint" />
            <mxPoint x="640" y="410" as="targetPoint" />
            <Array as="points">
              <mxPoint x="550" y="410" />
            </Array>
          </mxGeometry>
        </mxCell>
        <mxCell id="Cl1ausW0XRphiPgj3pix-85" value="-" style="text;html=1;align=center;verticalAlign=middle;resizable=0;points=[];autosize=1;strokeColor=none;fillColor=none;fontFamily=Helvetica;fontSize=12;fontColor=default;labelBackgroundColor=#ffffff;" vertex="1" parent="1">
          <mxGeometry x="615" y="340" width="30" height="30" as="geometry" />
        </mxCell>
        <mxCell id="Cl1ausW0XRphiPgj3pix-86" value="+" style="text;html=1;align=center;verticalAlign=middle;resizable=0;points=[];autosize=1;strokeColor=none;fillColor=none;fontFamily=Helvetica;fontSize=12;fontColor=default;labelBackgroundColor=#ffffff;" vertex="1" parent="1">
          <mxGeometry x="615" y="408" width="30" height="30" as="geometry" />
        </mxCell>
        <mxCell id="Cl1ausW0XRphiPgj3pix-87" value="" style="endArrow=none;html=1;rounded=0;fontFamily=Helvetica;fontSize=12;fontColor=default;labelBackgroundColor=#ffffff;" edge="1" parent="1" target="Cl1ausW0XRphiPgj3pix-70">
          <mxGeometry width="50" height="50" relative="1" as="geometry">
            <mxPoint x="429" y="458" as="sourcePoint" />
            <mxPoint x="429" y="530" as="targetPoint" />
          </mxGeometry>
        </mxCell>
        <mxCell id="Cl1ausW0XRphiPgj3pix-88" value="" style="endArrow=none;html=1;rounded=0;fontFamily=Helvetica;fontSize=12;fontColor=default;labelBackgroundColor=#ffffff;exitX=0.438;exitY=0.969;exitDx=0;exitDy=0;exitPerimeter=0;" edge="1" parent="1" target="Cl1ausW0XRphiPgj3pix-70">
          <mxGeometry width="50" height="50" relative="1" as="geometry">
            <mxPoint x="350.00399999999985" y="463.46199999999993" as="sourcePoint" />
            <mxPoint x="583.94" y="542.5304169953791" as="targetPoint" />
            <Array as="points">
              <mxPoint x="350" y="540" />
            </Array>
          </mxGeometry>
        </mxCell>
        <mxCell id="Cl1ausW0XRphiPgj3pix-90" value="" style="endArrow=none;html=1;rounded=0;fontFamily=Helvetica;fontSize=12;fontColor=default;labelBackgroundColor=#ffffff;entryX=0.509;entryY=0.964;entryDx=0;entryDy=0;entryPerimeter=0;" edge="1" parent="1">
          <mxGeometry width="50" height="50" relative="1" as="geometry">
            <mxPoint x="703.587894736842" y="425" as="sourcePoint" />
            <mxPoint x="116.41444999999993" y="434.00800000000004" as="targetPoint" />
            <Array as="points">
              <mxPoint x="700" y="640" />
              <mxPoint x="560" y="640" />
              <mxPoint x="370.43" y="635" />
              <mxPoint x="120.43" y="635" />
            </Array>
          </mxGeometry>
        </mxCell>
        <mxCell id="Cl1ausW0XRphiPgj3pix-91" value="" style="endArrow=none;html=1;rounded=0;fontFamily=Helvetica;fontSize=12;fontColor=default;labelBackgroundColor=#ffffff;entryX=0.039;entryY=0.912;entryDx=0;entryDy=0;entryPerimeter=0;" edge="1" parent="1">
          <mxGeometry width="50" height="50" relative="1" as="geometry">
            <mxPoint x="719.9677419354839" y="430" as="sourcePoint" />
            <mxPoint x="100.99095000000011" y="433.96399999999994" as="targetPoint" />
            <Array as="points">
              <mxPoint x="759" y="540" />
              <mxPoint x="759" y="670" />
              <mxPoint x="689" y="670" />
              <mxPoint x="619" y="670" />
              <mxPoint x="379" y="670" />
              <mxPoint x="69" y="658" />
              <mxPoint x="69" y="560" />
            </Array>
          </mxGeometry>
        </mxCell>
        <mxCell id="Cl1ausW0XRphiPgj3pix-92" value="A" style="text;html=1;align=center;verticalAlign=middle;resizable=0;points=[];autosize=1;strokeColor=none;fillColor=none;fontFamily=Helvetica;fontSize=12;fontColor=default;labelBackgroundColor=#ffffff;" vertex="1" parent="1">
          <mxGeometry x="45" y="428" width="30" height="30" as="geometry" />
        </mxCell>
        <mxCell id="Cl1ausW0XRphiPgj3pix-93" value="B" style="text;html=1;align=center;verticalAlign=middle;resizable=0;points=[];autosize=1;strokeColor=none;fillColor=none;fontFamily=Helvetica;fontSize=12;fontColor=default;labelBackgroundColor=#ffffff;" vertex="1" parent="1">
          <mxGeometry x="115" y="430" width="30" height="30" as="geometry" />
        </mxCell>
        <mxCell id="Cl1ausW0XRphiPgj3pix-94" value="" style="edgeStyle=none;orthogonalLoop=1;jettySize=auto;html=1;rounded=0;" edge="1" parent="1">
          <mxGeometry width="80" relative="1" as="geometry">
            <mxPoint x="490" y="410" as="sourcePoint" />
            <mxPoint x="550" y="472.5" as="targetPoint" />
            <Array as="points" />
          </mxGeometry>
        </mxCell>
        <mxCell id="Cl1ausW0XRphiPgj3pix-95" value="" style="edgeStyle=none;orthogonalLoop=1;jettySize=auto;html=1;rounded=0;" edge="1" parent="1">
          <mxGeometry width="80" relative="1" as="geometry">
            <mxPoint x="510" y="380" as="sourcePoint" />
            <mxPoint x="600" y="470" as="targetPoint" />
            <Array as="points" />
          </mxGeometry>
        </mxCell>
        <mxCell id="Cl1ausW0XRphiPgj3pix-96" value="+" style="text;html=1;align=center;verticalAlign=middle;resizable=0;points=[];autosize=1;strokeColor=none;fillColor=none;fontFamily=Helvetica;fontSize=12;fontColor=default;labelBackgroundColor=#ffffff;" vertex="1" parent="1">
          <mxGeometry x="475" y="438" width="30" height="30" as="geometry" />
        </mxCell>
        <mxCell id="Cl1ausW0XRphiPgj3pix-97" value="-" style="text;html=1;align=center;verticalAlign=middle;resizable=0;points=[];autosize=1;strokeColor=none;fillColor=none;fontFamily=Helvetica;fontSize=12;fontColor=default;labelBackgroundColor=#ffffff;" vertex="1" parent="1">
          <mxGeometry x="575" y="428" width="30" height="30" as="geometry" />
        </mxCell>
      </root>
    </mxGraphModel>
  </diagram>
</mxfile>
